<?xml version="1.0" encoding="utf-8"?><svg xmlns="http://www.w3.org/2000/svg" xmlns:xlink="http://www.w3.org/1999/xlink" width="1920" height="937" preserveAspectRatio="xMidYMid" viewBox="0 0 1920 937" style="z-index:1;margin-right:-2px;display:block;background-repeat-y:initial;background-repeat-x:initial;background-color:rgb(241, 242, 243);animation-play-state:paused" ><g transform="" style="animation-play-state:paused" ><defs style="animation-play-state:paused" ><linearGradient id="ldbk-photon-nq4q5u6dq7r-lg" x1="0" x2="487" y1="0" y2="0" gradientUnits="userSpaceOnUse" style="animation-play-state:paused" ><stop stop-color="#000000" offset="0" style="animation-play-state:paused" ></stop>

    
<stop stop-color="#b5b5b5" offset="1" style="animation-play-state:paused" ></stop></linearGradient>

  
<mask id="ldbk-photon-nq4q5u6dq7r-mask" style="animation-play-state:paused" ><g style="animation-play-state:paused" ><path d="M-300 -0.5 L505.9350575818519 -0.5 A13.5 13.5 0 0 1 505.9350575818519 27.5 L-300 27.5" fill="#fff" transform="matrix(1,0,0,1,27,0)" style="transform:matrix(1, 0, 0, 1, 27, 0);animation-play-state:paused" ></path>
<path d="M455.80043297501487 -0.5 L478.9350575818519 -0.5 A13.5 13.5 0 0 1 478.9350575818519 27.5 L455.80043297501487 27.5 A13.5 13.5 0 0 1 455.80043297501487 -0.5" fill="#fff" transform="matrix(1,0,0,1,0,0)" opacity="1" style="transform:matrix(1, 0, 0, 1, 0, 0);animation-play-state:paused" ></path>
<path d="M-300 26.5 L387.1007317075899 26.5 A13.5 13.5 0 0 0 387.1007317075899 54.5 L-300 54.5" fill="#fff" transform="matrix(1,0,0,1,1.7764530181884766,0)" style="transform:matrix(1, 0, 0, 1, 1.77645, 0);animation-play-state:paused" ></path>
<path d="M-57.69212492353904 26.5 L-26.999999999999996 26.5 A13.5 13.5 0 0 1 -26.999999999999996 54.5 L-57.69212492353904 54.5 A13.5 13.5 0 0 1 -57.69212492353904 26.5" fill="#000" transform="matrix(1,0,0,1,60.72429275512695,0)" opacity="1" style="transform:matrix(1, 0, 0, 1, 60.7243, 0);animation-play-state:paused" ></path>
<path d="M-300 53.5 L454.4773215026352 53.5 A13.5 13.5 0 0 1 454.4773215026352 81.5 L-300 81.5" fill="#fff" transform="matrix(1,0,0,1,89.06172180175781,0)" style="transform:matrix(1, 0, 0, 1, 89.0617, 0);animation-play-state:paused" ></path>
<path d="M400.6359328656414 53.5 L427.4773215026353 53.5 A13.5 13.5 0 0 1 427.4773215026353 81.5 L400.6359328656414 81.5 A13.5 13.5 0 0 1 400.6359328656414 53.5" fill="#fff" transform="matrix(1,0,0,1,102.93431854248047,0)" opacity="1" style="transform:matrix(1, 0, 0, 1, 102.934, 0);animation-play-state:paused" ></path>
<path d="M-300 80.5 L418.22566472073606 80.5 A13.5 13.5 0 0 0 418.22566472073606 108.5 L-300 108.5" fill="#fff" transform="matrix(1,0,0,1,-98.36109924316406,0)" style="transform:matrix(1, 0, 0, 1, -98.3611, 0);animation-play-state:paused" ></path>
<path d="M-53.5869488324803 80.5 L-26.999999999999996 80.5 A13.5 13.5 0 0 1 -26.999999999999996 108.5 L-53.5869488324803 108.5 A13.5 13.5 0 0 1 -53.5869488324803 80.5" fill="#000" transform="matrix(1,0,0,1,193.7637176513672,0)" opacity="1" style="transform:matrix(1, 0, 0, 1, 193.764, 0);animation-play-state:paused" ></path>
<path d="M-300 107.5 L456.01312742863115 107.5 A13.5 13.5 0 0 1 456.01312742863115 135.5 L-300 135.5" fill="#fff" transform="matrix(1,0,0,1,83.35839080810547,0)" style="transform:matrix(1, 0, 0, 1, 83.3584, 0);animation-play-state:paused" ></path>
<path d="M397.70878801089856 107.5 L429.01312742863115 107.5 A13.5 13.5 0 0 1 429.01312742863115 135.5 L397.70878801089856 135.5 A13.5 13.5 0 0 1 397.70878801089856 107.5" fill="#fff" transform="matrix(1,0,0,1,238.404541015625,0)" opacity="0.938776" style="transform:matrix(1, 0, 0, 1, 238.405, 0);opacity:0.938776;animation-play-state:paused" ></path>
<path d="M-300 134.5 L379.9913433787384 134.5 A13.5 13.5 0 0 0 379.9913433787384 162.5 L-300 162.5" fill="#fff" transform="matrix(1,0,0,1,-46.39112854003906,0)" style="transform:matrix(1, 0, 0, 1, -46.3911, 0);animation-play-state:paused" ></path>
<path d="M-41.4716536424837 134.5 L-27 134.5 A13.5 13.5 0 0 1 -27 162.5 L-41.4716536424837 162.5 A13.5 13.5 0 0 1 -41.4716536424837 134.5" fill="#000" transform="matrix(1,0,0,1,410.65460205078125,0)" opacity="0.204082" style="transform:matrix(1, 0, 0, 1, 410.655, 0);opacity:0.204082;animation-play-state:paused" ></path>
<path d="M-300 161.5 L463.78731413441665 161.5 A13.5 13.5 0 0 1 463.78731413441665 189.5 L-300 189.5" fill="#fff" transform="matrix(1,0,0,1,61.607845306396484,0)" style="transform:matrix(1, 0, 0, 1, 61.6078, 0);animation-play-state:paused" ></path>
<path d="M405.35055136595787 161.5 L436.78731413441665 161.5 A13.5 13.5 0 0 1 436.78731413441665 189.5 L405.35055136595787 189.5 A13.5 13.5 0 0 1 405.35055136595787 161.5" fill="#fff" transform="matrix(1,0,0,1,456.0950622558594,0)" opacity="0.693878" style="transform:matrix(1, 0, 0, 1, 456.095, 0);opacity:0.693878;animation-play-state:paused" ></path>
<path d="M-300 188.5 L388.0465642883857 188.5 A13.5 13.5 0 0 0 388.0465642883857 216.5 L-300 216.5" fill="#fff" transform="matrix(1,0,0,1,-48.42509460449219,0)" style="transform:matrix(1, 0, 0, 1, -48.4251, 0);animation-play-state:paused" ></path>
<path d="M-64.40972706865008 188.5 L-27.000000000000007 188.5 A13.5 13.5 0 0 1 -27.000000000000007 216.5 L-64.40972706865008 216.5 A13.5 13.5 0 0 1 -64.40972706865008 188.5" fill="#000" transform="matrix(1,0,0,1,269.5778503417969,0)" opacity="0.571429" style="transform:matrix(1, 0, 0, 1, 269.578, 0);opacity:0.571429;animation-play-state:paused" ></path>
<path d="M-300 215.5 L515.7883369346538 215.5 A13.5 13.5 0 0 1 515.7883369346538 243.5 L-300 243.5" fill="#fff" transform="matrix(1,0,0,1,28.105209350585938,0)" style="transform:matrix(1, 0, 0, 1, 28.1052, 0);animation-play-state:paused" ></path>
<path d="M460.728848570567 215.5 L488.7883369346538 215.5 A13.5 13.5 0 0 1 488.7883369346538 243.5 L460.728848570567 243.5 A13.5 13.5 0 0 1 460.728848570567 215.5" fill="#fff" transform="matrix(1,0,0,1,39.00871276855469,0)" opacity="1" style="transform:matrix(1, 0, 0, 1, 39.0087, 0);animation-play-state:paused" ></path>
<path d="M-300 242.5 L373.15103521230293 242.5 A13.5 13.5 0 0 0 373.15103521230293 270.5 L-300 270.5" fill="#fff" transform="matrix(1,0,0,1,-62.740501403808594,0)" style="transform:matrix(1, 0, 0, 1, -62.7405, 0);animation-play-state:paused" ></path>
<path d="M-41.68475726874614 242.5 L-27 242.5 A13.5 13.5 0 0 1 -27 270.5 L-41.68475726874614 270.5 A13.5 13.5 0 0 1 -41.68475726874614 242.5" fill="#000" transform="matrix(1,0,0,1,121.52661895751953,0)" opacity="0.979592" style="transform:matrix(1, 0, 0, 1, 121.527, 0);opacity:0.979592;animation-play-state:paused" ></path>
<path d="M-300 269.5 L518.8810612900139 269.5 A13.5 13.5 0 0 1 518.8810612900139 297.5 L-300 297.5" fill="#fff" transform="matrix(1,0,0,1,37.37018585205078,0)" style="transform:matrix(1, 0, 0, 1, 37.3702, 0);animation-play-state:paused" ></path>
<path d="M467.2409540526257 269.5 L491.8810612900139 269.5 A13.5 13.5 0 0 1 491.8810612900139 297.5 L467.2409540526257 297.5 A13.5 13.5 0 0 1 467.2409540526257 269.5" fill="#fff" transform="matrix(1,0,0,1,712.81689453125,0)" opacity="0.204082" style="transform:matrix(1, 0, 0, 1, 712.817, 0);opacity:0.204082;animation-play-state:paused" ></path>
<path d="M-300 296.5 L342.3410733375117 296.5 A13.5 13.5 0 0 0 342.3410733375117 324.5 L-300 324.5" fill="#fff" transform="matrix(1,0,0,1,6.625434875488281,0)" style="transform:matrix(1, 0, 0, 1, 6.62543, 0);animation-play-state:paused" ></path>
<path d="M-57.63755126777677 296.5 L-26.999999999999996 296.5 A13.5 13.5 0 0 1 -26.999999999999996 324.5 L-57.63755126777677 324.5 A13.5 13.5 0 0 1 -57.63755126777677 296.5" fill="#000" transform="matrix(1,0,0,1,460.0116882324219,0)" opacity="0.244898" style="transform:matrix(1, 0, 0, 1, 460.012, 0);opacity:0.244898;animation-play-state:paused" ></path>
<path d="M-300 323.5 L458.43407758712505 323.5 A13.5 13.5 0 0 1 458.43407758712505 351.5 L-300 351.5" fill="#fff" transform="matrix(1,0,0,1,28.355905532836914,0)" style="transform:matrix(1, 0, 0, 1, 28.3559, 0);animation-play-state:paused" ></path>
<path d="M394.9135525919874 323.5 L431.43407758712505 323.5 A13.5 13.5 0 0 1 431.43407758712505 351.5 L394.9135525919874 351.5 A13.5 13.5 0 0 1 394.9135525919874 323.5" fill="#fff" transform="matrix(1,0,0,1,25.67483901977539,0)" opacity="1" style="transform:matrix(1, 0, 0, 1, 25.6748, 0);animation-play-state:paused" ></path>
<path d="M-300 350.5 L431.17679765442193 350.5 A13.5 13.5 0 0 0 431.17679765442193 378.5 L-300 378.5" fill="#fff" transform="matrix(1,0,0,1,-37.80628204345703,0)" style="transform:matrix(1, 0, 0, 1, -37.8063, 0);animation-play-state:paused" ></path>
<path d="M-56.7350890452089 350.5 L-27 350.5 A13.5 13.5 0 0 1 -27 378.5 L-56.7350890452089 378.5 A13.5 13.5 0 0 1 -56.7350890452089 350.5" fill="#000" transform="matrix(1,0,0,1,73.33607482910156,0)" opacity="1" style="transform:matrix(1, 0, 0, 1, 73.3361, 0);animation-play-state:paused" ></path>
<path d="M-300 377.5 L536.032844422961 377.5 A13.5 13.5 0 0 1 536.032844422961 405.5 L-300 405.5" fill="#fff" transform="matrix(1,0,0,1,44.76345443725586,0)" style="transform:matrix(1, 0, 0, 1, 44.7635, 0);animation-play-state:paused" ></path>
<path d="M489.9620004755337 377.5 L509.03284442296103 377.5 A13.5 13.5 0 0 1 509.03284442296103 405.5 L489.9620004755337 405.5 A13.5 13.5 0 0 1 489.9620004755337 377.5" fill="#fff" transform="matrix(1,0,0,1,279.49102783203125,0)" opacity="0.857143" style="transform:matrix(1, 0, 0, 1, 279.491, 0);opacity:0.857143;animation-play-state:paused" ></path>
<path d="M-300 404.5 L395.704167294724 404.5 A13.5 13.5 0 0 0 395.704167294724 432.5 L-300 432.5" fill="#fff" transform="matrix(1,0,0,1,8.872596740722656,0)" style="transform:matrix(1, 0, 0, 1, 8.8726, 0);animation-play-state:paused" ></path>
<path d="M-48.761386191321094 404.5 L-27 404.5 A13.5 13.5 0 0 1 -27 432.5 L-48.761386191321094 432.5 A13.5 13.5 0 0 1 -48.761386191321094 404.5" fill="#000" transform="matrix(1,0,0,1,391.2236633300781,0)" opacity="0.612245" style="transform:matrix(1, 0, 0, 1, 391.224, 0);opacity:0.612245;animation-play-state:paused" ></path>
<path d="M-300 431.5 L498.53994161384435 431.5 A13.5 13.5 0 0 1 498.53994161384435 459.5 L-300 459.5" fill="#fff" transform="matrix(1,0,0,1,30.208250045776367,0)" style="transform:matrix(1, 0, 0, 1, 30.2083, 0);animation-play-state:paused" ></path>
<path d="M454.4766335231068 431.5 L471.53994161384435 431.5 A13.5 13.5 0 0 1 471.53994161384435 459.5 L454.4766335231068 459.5 A13.5 13.5 0 0 1 454.4766335231068 431.5" fill="#fff" transform="matrix(1,0,0,1,265.619140625,0)" opacity="0.897959" style="transform:matrix(1, 0, 0, 1, 265.619, 0);opacity:0.897959;animation-play-state:paused" ></path>
<path d="M-300 458.5 L388.1915962079405 458.5 A13.5 13.5 0 0 0 388.1915962079405 486.5 L-300 486.5" fill="#fff" transform="matrix(1,0,0,1,-47.00513458251953,0)" style="transform:matrix(1, 0, 0, 1, -47.0051, 0);animation-play-state:paused" ></path>
<path d="M-38.54512241812109 458.5 L-27 458.5 A13.5 13.5 0 0 1 -27 486.5 L-38.54512241812109 486.5 A13.5 13.5 0 0 1 -38.54512241812109 458.5" fill="#000" transform="matrix(1,0,0,1,242.64266967773438,0)" opacity="0.77551" style="transform:matrix(1, 0, 0, 1, 242.643, 0);opacity:0.77551;animation-play-state:paused" ></path>
<path d="M-300 485.5 L477.59005588797066 485.5 A13.5 13.5 0 0 1 477.59005588797066 513.5 L-300 513.5" fill="#fff" transform="matrix(1,0,0,1,29.756303787231445,0)" style="transform:matrix(1, 0, 0, 1, 29.7563, 0);animation-play-state:paused" ></path>
<path d="M415.5857885567008 485.5 L450.5900558879707 485.5 A13.5 13.5 0 0 1 450.5900558879707 513.5 L415.5857885567008 513.5 A13.5 13.5 0 0 1 415.5857885567008 485.5" fill="#fff" transform="matrix(1,0,0,1,358.3988952636719,0)" opacity="0.653061" style="transform:matrix(1, 0, 0, 1, 358.399, 0);opacity:0.653061;animation-play-state:paused" ></path>
<path d="M-300 512.5 L342.63294357667087 512.5 A13.5 13.5 0 0 0 342.63294357667087 540.5 L-300 540.5" fill="#fff" transform="matrix(1,0,0,1,-60.81297302246094,0)" style="transform:matrix(1, 0, 0, 1, -60.813, 0);animation-play-state:paused" ></path>
<path d="M-44.093711651173116 512.5 L-27 512.5 A13.5 13.5 0 0 1 -27 540.5 L-44.093711651173116 540.5 A13.5 13.5 0 0 1 -44.093711651173116 512.5" fill="#000" transform="matrix(1,0,0,1,332.2765197753906,0)" opacity="0.530612" style="transform:matrix(1, 0, 0, 1, 332.277, 0);opacity:0.530612;animation-play-state:paused" ></path>
<path d="M-300 539.5 L429.8657762100158 539.5 A13.5 13.5 0 0 1 429.8657762100158 567.5 L-300 567.5" fill="#fff" transform="matrix(1,0,0,1,32.89617919921875,0)" style="transform:matrix(1, 0, 0, 1, 32.8962, 0);animation-play-state:paused" ></path>
<path d="M385.06423514931004 539.5 L402.8657762100158 539.5 A13.5 13.5 0 0 1 402.8657762100158 567.5 L385.06423514931004 567.5 A13.5 13.5 0 0 1 385.06423514931004 539.5" fill="#fff" transform="matrix(1,0,0,1,268.3949279785156,0)" opacity="0.816327" style="transform:matrix(1, 0, 0, 1, 268.395, 0);opacity:0.816327;animation-play-state:paused" ></path>
<path d="M-300 566.5 L384.9251900906353 566.5 A13.5 13.5 0 0 0 384.9251900906353 594.5 L-300 594.5" fill="#fff" transform="matrix(1,0,0,1,2.7710304260253906,0)" style="transform:matrix(1, 0, 0, 1, 2.77103, 0);animation-play-state:paused" ></path>
<path d="M-62.17406619806894 566.5 L-27 566.5 A13.5 13.5 0 0 1 -27 594.5 L-62.17406619806894 594.5 A13.5 13.5 0 0 1 -62.17406619806894 566.5" fill="#000" transform="matrix(1,0,0,1,274.51068115234375,0)" opacity="0.571429" style="transform:matrix(1, 0, 0, 1, 274.511, 0);opacity:0.571429;animation-play-state:paused" ></path>
<path d="M-300 593.5 L499.11141833573225 593.5 A13.5 13.5 0 0 1 499.11141833573225 621.5 L-300 621.5" fill="#fff" transform="matrix(1,0,0,1,47.4161376953125,0)" style="transform:matrix(1, 0, 0, 1, 47.4161, 0);animation-play-state:paused" ></path>
<path d="M449.705000318105 593.5 L472.11141833573225 593.5 A13.5 13.5 0 0 1 472.11141833573225 621.5 L449.705000318105 621.5 A13.5 13.5 0 0 1 449.705000318105 593.5" fill="#fff" transform="matrix(1,0,0,1,734.0177612304688,0)" opacity="0.326531" style="transform:matrix(1, 0, 0, 1, 734.018, 0);opacity:0.326531;animation-play-state:paused" ></path>
<path d="M-300 620.5 L341.9308824712012 620.5 A13.5 13.5 0 0 0 341.9308824712012 648.5 L-300 648.5" fill="#fff" transform="matrix(1,0,0,1,26.61346435546875,0)" style="transform:matrix(1, 0, 0, 1, 26.6135, 0);animation-play-state:paused" ></path>
<path d="M-62.49371984491762 620.5 L-27 620.5 A13.5 13.5 0 0 1 -27 648.5 L-62.49371984491762 648.5 A13.5 13.5 0 0 1 -62.49371984491762 620.5" fill="#000" transform="matrix(1,0,0,1,648.1612548828125,0)" opacity="0.0408163" style="transform:matrix(1, 0, 0, 1, 648.161, 0);opacity:0.0408163;animation-play-state:paused" ></path>
<path d="M-300 647.5 L472.9900123726925 647.5 A13.5 13.5 0 0 1 472.9900123726925 675.5 L-300 675.5" fill="#fff" transform="matrix(1,0,0,1,33.755836486816406,0)" style="transform:matrix(1, 0, 0, 1, 33.7558, 0);animation-play-state:paused" ></path>
<path d="M423.5849625795216 647.5 L445.9900123726925 647.5 A13.5 13.5 0 0 1 445.9900123726925 675.5 L423.5849625795216 675.5 A13.5 13.5 0 0 1 423.5849625795216 647.5" fill="#fff" transform="matrix(1,0,0,1,105.13336181640625,0)" opacity="1" style="transform:matrix(1, 0, 0, 1, 105.133, 0);animation-play-state:paused" ></path>
<path d="M-300 674.5 L280.29275005907266 674.5 A13.5 13.5 0 0 0 280.29275005907266 702.5 L-300 702.5" fill="#fff" transform="matrix(1,0,0,1,-37.497474670410156,0)" style="transform:matrix(1, 0, 0, 1, -37.4975, 0);animation-play-state:paused" ></path>
<path d="M-39.72850825196373 674.5 L-26.999999999999996 674.5 A13.5 13.5 0 0 1 -26.999999999999996 702.5 L-39.72850825196373 702.5 A13.5 13.5 0 0 1 -39.72850825196373 674.5" fill="#000" transform="matrix(1,0,0,1,75.76643371582031,0)" opacity="1" style="transform:matrix(1, 0, 0, 1, 75.7664, 0);animation-play-state:paused" ></path>
<path d="M-300 701.5 L509.0512506922213 701.5 A13.5 13.5 0 0 1 509.0512506922213 729.5 L-300 729.5" fill="#fff" transform="matrix(1,0,0,1,51.49555206298828,0)" style="transform:matrix(1, 0, 0, 1, 51.4956, 0);animation-play-state:paused" ></path>
<path d="M469.3698180778795 701.5 L482.0512506922213 701.5 A13.5 13.5 0 0 1 482.0512506922213 729.5 L469.3698180778795 729.5 A13.5 13.5 0 0 1 469.3698180778795 701.5" fill="#fff" transform="matrix(1,0,0,1,555.699951171875,0)" opacity="0.44898" style="transform:matrix(1, 0, 0, 1, 555.7, 0);opacity:0.44898;animation-play-state:paused" ></path>
<path d="M-300 728.5 L304.5715101434911 728.5 A13.5 13.5 0 0 0 304.5715101434911 756.5 L-300 756.5" fill="#fff" transform="matrix(1,0,0,1,25.05157470703125,0)" style="transform:matrix(1, 0, 0, 1, 25.0516, 0);animation-play-state:paused" ></path>
<path d="M-50.286402579427616 728.5 L-27 728.5 A13.5 13.5 0 0 1 -27 756.5 L-50.286402579427616 756.5 A13.5 13.5 0 0 1 -50.286402579427616 728.5" fill="#000" transform="matrix(1,0,0,1,462.73883056640625,0)" opacity="0.0816327" style="transform:matrix(1, 0, 0, 1, 462.739, 0);opacity:0.0816327;animation-play-state:paused" ></path>
<path d="M-300 755.5 L501.85878480747704 755.5 A13.5 13.5 0 0 1 501.85878480747704 783.5 L-300 783.5" fill="#fff" transform="matrix(1,0,0,1,36.93859100341797,0)" style="transform:matrix(1, 0, 0, 1, 36.9386, 0);animation-play-state:paused" ></path>
<path d="M446.2116796583684 755.5 L474.85878480747704 755.5 A13.5 13.5 0 0 1 474.85878480747704 783.5 L446.2116796583684 783.5 A13.5 13.5 0 0 1 446.2116796583684 755.5" fill="#fff" transform="matrix(1,0,0,1,270.5189514160156,0)" opacity="0.857143" style="transform:matrix(1, 0, 0, 1, 270.519, 0);opacity:0.857143;animation-play-state:paused" ></path>
<path d="M-300 782.5 L366.05172380868095 782.5 A13.5 13.5 0 0 0 366.05172380868095 810.5 L-300 810.5" fill="#fff" transform="matrix(1,0,0,1,26.43609619140625,0)" style="transform:matrix(1, 0, 0, 1, 26.4361, 0);animation-play-state:paused" ></path>
<path d="M-66.42410404180274 782.5 L-27 782.5 A13.5 13.5 0 0 1 -27 810.5 L-66.42410404180274 810.5 A13.5 13.5 0 0 1 -66.42410404180274 782.5" fill="#000" transform="matrix(1,0,0,1,244.1012725830078,0)" opacity="0.734694" style="transform:matrix(1, 0, 0, 1, 244.101, 0);opacity:0.734694;animation-play-state:paused" ></path>
<path d="M-300 809.5 L472.49775811325935 809.5 A13.5 13.5 0 0 1 472.49775811325935 837.5 L-300 837.5" fill="#fff" transform="matrix(1,0,0,1,59.86820983886719,0)" style="transform:matrix(1, 0, 0, 1, 59.8682, 0);animation-play-state:paused" ></path>
<path d="M411.325318082339 809.5 L445.49775811325935 809.5 A13.5 13.5 0 0 1 445.49775811325935 837.5 L411.325318082339 837.5 A13.5 13.5 0 0 1 411.325318082339 809.5" fill="#fff" transform="matrix(1,0,0,1,429.84759521484375,0)" opacity="0.612245" style="transform:matrix(1, 0, 0, 1, 429.848, 0);opacity:0.612245;animation-play-state:paused" ></path>
<path d="M-300 836.5 L322.13813346821576 836.5 A13.5 13.5 0 0 0 322.13813346821576 864.5 L-300 864.5" fill="#fff" transform="matrix(1,0,0,1,-52.915184020996094,0)" style="transform:matrix(1, 0, 0, 1, -52.9152, 0);animation-play-state:paused" ></path>
<path d="M-41.4439949917564 836.5 L-27 836.5 A13.5 13.5 0 0 1 -27 864.5 L-41.4439949917564 864.5 A13.5 13.5 0 0 1 -41.4439949917564 836.5" fill="#000" transform="matrix(1,0,0,1,181.79075622558594,0)" opacity="0.979592" style="transform:matrix(1, 0, 0, 1, 181.791, 0);opacity:0.979592;animation-play-state:paused" ></path>
<path d="M-300 863.5 L387.69074027398216 863.5 A13.5 13.5 0 0 1 387.69074027398216 891.5 L-300 891.5" fill="#fff" transform="matrix(1,0,0,1,58.30546569824219,0)" style="transform:matrix(1, 0, 0, 1, 58.3055, 0);animation-play-state:paused" ></path>
<path d="M343.92536736166494 863.5 L360.6907402739821 863.5 A13.5 13.5 0 0 1 360.6907402739821 891.5 L343.92536736166494 891.5 A13.5 13.5 0 0 1 343.92536736166494 863.5" fill="#fff" transform="matrix(1,0,0,1,432.1021423339844,0)" opacity="0.367347" style="transform:matrix(1, 0, 0, 1, 432.102, 0);opacity:0.367347;animation-play-state:paused" ></path>
<path d="M-300 890.5 L372.3394122480661 890.5 A13.5 13.5 0 0 0 372.3394122480661 918.5 L-300 918.5" fill="#fff" transform="matrix(1,0,0,1,-66.86222076416016,0)" style="transform:matrix(1, 0, 0, 1, -66.8622, 0);animation-play-state:paused" ></path>
<path d="M-39.27525178986586 890.5 L-27 890.5 A13.5 13.5 0 0 1 -27 918.5 L-39.27525178986586 918.5 A13.5 13.5 0 0 1 -39.27525178986586 890.5" fill="#000" transform="matrix(1,0,0,1,265.6778869628906,0)" opacity="0.734694" style="transform:matrix(1, 0, 0, 1, 265.678, 0);opacity:0.734694;animation-play-state:paused" ></path>
<path d="M-300 917.5 L485.5890091949501 917.5 A13.5 13.5 0 0 1 485.5890091949501 945.5 L-300 945.5" fill="#fff" transform="matrix(1,0,0,1,35.164886474609375,0)" style="transform:matrix(1, 0, 0, 1, 35.1649, 0);animation-play-state:paused" ></path>
<path d="M434.0561923767511 917.5 L458.5890091949501 917.5 A13.5 13.5 0 0 1 458.5890091949501 945.5 L434.0561923767511 945.5 A13.5 13.5 0 0 1 434.0561923767511 917.5" fill="#fff" transform="matrix(1,0,0,1,617.7369995117188,0)" opacity="0.122449" style="transform:matrix(1, 0, 0, 1, 617.737, 0);opacity:0.122449;animation-play-state:paused" ></path></g></mask></defs>


<rect x="0" y="0" width="1920" height="937" fill="url(#ldbk-photon-nq4q5u6dq7r-lg)" mask="url(#ldbk-photon-nq4q5u6dq7r-mask)" style="animation-play-state:paused" ></rect></g></svg>